<svg id="visual" viewBox="0 0 960 300" width="960" height="300" xmlns="http://www.w3.org/2000/svg" xmlns:xlink="http://www.w3.org/1999/xlink" version="1.1"><path d="M0 169L51 180L101 152L152 157L202 182L253 120L303 169L354 161L404 179L455 153L505 140L556 128L606 180L657 136L707 127L758 119L808 190L859 129L909 146L960 192L960 0L909 0L859 0L808 0L758 0L707 0L657 0L606 0L556 0L505 0L455 0L404 0L354 0L303 0L253 0L202 0L152 0L101 0L51 0L0 0Z" fill="#733c81"></path><path d="M0 136L51 150L101 144L152 148L202 106L253 135L303 165L354 125L404 165L455 153L505 113L556 150L606 139L657 150L707 123L758 169L808 135L859 136L909 137L960 134L960 0L909 0L859 0L808 0L758 0L707 0L657 0L606 0L556 0L505 0L455 0L404 0L354 0L303 0L253 0L202 0L152 0L101 0L51 0L0 0Z" fill="#8b3986"></path><path d="M0 95L51 94L101 137L152 127L202 133L253 143L303 91L354 91L404 147L455 85L505 99L556 86L606 122L657 125L707 149L758 132L808 137L859 95L909 144L960 95L960 0L909 0L859 0L808 0L758 0L707 0L657 0L606 0L556 0L505 0L455 0L404 0L354 0L303 0L253 0L202 0L152 0L101 0L51 0L0 0Z" fill="#a43487"></path><path d="M0 97L51 92L101 97L152 65L202 67L253 80L303 76L354 83L404 121L455 95L505 76L556 113L606 81L657 92L707 86L758 65L808 85L859 116L909 75L960 109L960 0L909 0L859 0L808 0L758 0L707 0L657 0L606 0L556 0L505 0L455 0L404 0L354 0L303 0L253 0L202 0L152 0L101 0L51 0L0 0Z" fill="#bd2b84"></path><path d="M0 81L51 72L101 91L152 55L202 58L253 85L303 83L354 50L404 75L455 68L505 75L556 91L606 96L657 73L707 81L758 96L808 62L859 74L909 92L960 82L960 0L909 0L859 0L808 0L758 0L707 0L657 0L606 0L556 0L505 0L455 0L404 0L354 0L303 0L253 0L202 0L152 0L101 0L51 0L0 0Z" fill="#d51f7d"></path><path d="M0 72L51 44L101 65L152 44L202 37L253 50L303 46L354 37L404 72L455 61L505 50L556 43L606 61L657 57L707 54L758 53L808 61L859 49L909 63L960 44L960 0L909 0L859 0L808 0L758 0L707 0L657 0L606 0L556 0L505 0L455 0L404 0L354 0L303 0L253 0L202 0L152 0L101 0L51 0L0 0Z" fill="#eb0e73"></path><path d="M0 32L51 44L101 46L152 27L202 40L253 25L303 45L354 42L404 21L455 33L505 29L556 26L606 26L657 41L707 42L758 30L808 23L859 37L909 36L960 37L960 0L909 0L859 0L808 0L758 0L707 0L657 0L606 0L556 0L505 0L455 0L404 0L354 0L303 0L253 0L202 0L152 0L101 0L51 0L0 0Z" fill="#ff0066"></path></svg>