<svg id="visual" viewBox="0 0 960 300" width="960" height="300" xmlns="http://www.w3.org/2000/svg" xmlns:xlink="http://www.w3.org/1999/xlink" version="1.1"><path d="M0 88L137 121L274 81L411 110L549 104L686 104L823 111L960 96L960 0L823 0L686 0L549 0L411 0L274 0L137 0L0 0Z" fill="#733c81"></path><path d="M0 93L137 66L274 94L411 85L549 70L686 74L823 63L960 95L960 0L823 0L686 0L549 0L411 0L274 0L137 0L0 0Z" fill="#983787"></path><path d="M0 49L137 76L274 49L411 60L549 45L686 51L823 62L960 64L960 0L823 0L686 0L549 0L411 0L274 0L137 0L0 0Z" fill="#bd2b84"></path><path d="M0 54L137 57L274 39L411 47L549 55L686 32L823 31L960 50L960 0L823 0L686 0L549 0L411 0L274 0L137 0L0 0Z" fill="#e01779"></path><path d="M0 23L137 21L274 17L411 17L549 19L686 18L823 27L960 17L960 0L823 0L686 0L549 0L411 0L274 0L137 0L0 0Z" fill="#ff0066"></path></svg>